<svg width="42" height="42" viewBox="0 0 42 42" fill="none" xmlns="http://www.w3.org/2000/svg">
<path d="M10.9887 11.1486C10.1055 9.68363 9.11466 8.53506 7.50691 8.22763C6.84311 8.10039 6.19794 8.18843 5.59142 8.52475C5.08149 8.80742 4.70957 9.21457 4.57295 9.83012C4.54052 9.97593 4.50257 10.1224 4.44875 10.2607C4.29487 10.6554 3.92709 10.892 3.59588 10.8198C3.23155 10.7407 2.96451 10.3686 3.00384 9.92435C3.06043 9.28129 3.27502 8.68843 3.64901 8.17467C4.31971 7.25376 5.22985 6.76957 6.28972 6.59832C7.55314 6.39336 8.70755 6.73037 9.7757 7.43257C10.5527 7.94358 11.193 8.61415 11.783 9.49174C11.7788 9.30261 11.7926 9.21251 11.7726 9.13204C11.5725 8.30741 11.2979 7.51373 10.8825 6.78401C10.3815 5.90367 9.69427 5.25786 8.77862 4.89885C8.54539 4.80738 8.30733 4.71728 8.09205 4.58867C7.75187 4.38509 7.60489 3.99925 7.70219 3.66087C7.80569 3.30048 8.15415 3.07421 8.5585 3.11754C8.68063 3.13061 8.80208 3.1705 8.92007 3.21176C11.3641 4.06872 12.6358 5.97589 13.1278 8.5777C13.1823 8.86725 13.2134 9.16162 13.3548 9.52407C13.4411 9.40852 13.5156 9.27785 13.6163 9.17881C14.8667 7.95184 16.3198 7.16779 18.018 7.01923C20.4413 6.80809 21.7807 7.82254 22.8833 9.66162C22.9571 9.78473 23.002 9.93329 23.0344 10.077C23.1131 10.4305 23.011 10.7593 22.7708 10.923C22.4852 11.1183 22.1995 11.064 21.9352 10.8776C21.8207 10.7964 21.7227 10.6843 21.6302 10.5736C21.5474 10.4752 21.4784 10.3631 21.4101 10.2524C20.5428 8.85281 19.2993 8.4147 17.7917 8.68568C16.186 8.97454 14.9336 9.90509 13.893 11.2029C13.8751 11.2249 13.8765 11.2641 13.8654 11.3081C14.0849 11.3797 14.3105 11.4367 14.5237 11.5255C15.2613 11.8336 15.8299 12.3625 16.2288 13.086C16.7794 14.0839 17.0954 15.1809 17.3314 16.3041C17.3797 16.5345 17.3521 16.8102 17.2824 17.0386C17.1299 17.5386 16.6103 17.6892 16.2771 17.3089C16.0632 17.0647 15.9176 16.7325 15.803 16.4148C15.5857 15.8109 15.4504 15.1706 15.2075 14.5798C15.0226 14.1307 14.75 13.7146 14.4699 13.3212C14.2394 12.9973 13.8986 12.8116 13.5073 12.7648C13.125 12.7194 12.9884 12.8494 12.8428 13.2242C12.6517 13.7153 12.6262 14.2236 12.5917 14.7373C12.3929 17.7147 12.1411 20.6899 12.0038 23.67C11.8809 26.333 11.8713 29.0029 12.2687 31.6453C12.3674 32.3001 12.5185 32.9486 12.6952 33.5841C13.2272 35.4989 14.4775 36.5635 16.2846 36.9342C16.6821 37.0154 17.0871 37.0574 17.4887 37.1179C17.6122 37.1364 17.7385 37.144 17.8586 37.1763C18.3257 37.2994 18.5976 37.6791 18.5314 38.1021C18.4617 38.545 18.1139 38.8173 17.6274 38.7781C17.2231 38.7458 16.8153 38.7094 16.4185 38.6261C15.9148 38.5209 15.4083 38.4012 14.9232 38.2266C13.261 37.6282 12.1073 36.4446 11.4442 34.7135C10.986 33.5174 10.7631 32.2616 10.6299 30.9844C10.4519 29.278 10.4167 27.5648 10.4278 25.8468C10.4457 22.9259 10.6417 20.0145 10.8949 17.1087C11.0205 15.6679 11.3048 14.2421 11.5173 12.8095C11.5242 12.7628 11.5235 12.7146 11.5277 12.6369C11.2303 12.5392 10.9439 12.6417 10.6651 12.7229C9.90887 12.9423 9.26853 13.3934 8.67994 13.9313C8.05617 14.5007 7.5145 15.1569 7.08117 15.8969C6.43393 17.0028 5.83154 18.1376 5.19742 19.2518C5.0118 19.5778 4.80203 19.8956 4.56398 20.1789C4.31902 20.4698 4.00644 20.5187 3.75942 20.3619C3.47927 20.1844 3.40751 19.899 3.47858 19.5826C3.54344 19.2924 3.6152 18.9932 3.74424 18.7319C4.44461 17.3109 5.18086 15.9107 6.06408 14.6053C6.2566 14.3205 6.46291 14.0454 6.67889 13.7806C7.81052 12.3941 9.10983 11.3095 10.9901 11.1472L10.9887 11.1486Z" fill="#09A696"/>
<path d="M18.7672 22.7298C18.8369 20.6404 19.0287 18.8226 19.3848 17.0276C19.4165 16.8687 19.4593 16.7043 19.5297 16.5647C19.6725 16.2813 19.9492 16.1706 20.1824 16.2752C20.4398 16.39 20.5681 16.6926 20.5316 17.0276C20.455 17.7312 20.3687 18.4347 20.3287 19.1404C20.2411 20.6727 20.1431 22.2071 20.1148 23.7402C20.0561 26.9458 20.179 30.1371 20.8097 33.2547C20.9828 34.1116 21.2444 34.9466 21.5162 35.7671C21.6391 36.1385 21.8599 36.4762 22.0827 36.7815C22.3408 37.1351 22.6099 37.1667 22.9349 36.882C23.2144 36.6371 23.4959 36.3579 23.6926 36.0257C24.1197 35.3056 24.5337 34.5676 24.8808 33.7918C25.8295 31.6687 26.4878 29.4087 27.1102 27.1356C27.7105 24.9437 28.295 22.7463 28.9119 20.5606C29.241 19.3955 29.664 18.2717 30.2015 17.2112C30.6162 16.3921 31.1006 15.6397 31.7416 15.0434C32.2716 14.5502 32.8588 14.2125 33.5302 14.1163C34.3596 13.9973 35.1013 14.2552 35.77 14.8116C36.4655 15.3907 36.9464 16.1796 37.3163 17.0743C37.7765 18.1871 38.0256 19.3797 38.194 20.6005C38.4403 22.3887 38.5342 24.1968 38.5501 26.0105C38.5721 28.4658 38.557 30.9218 38.5639 33.3778C38.5659 34.0862 38.5804 34.7953 38.6094 35.5023C38.6204 35.7781 38.6784 36.0525 38.7322 36.3214C38.8219 36.7685 38.6674 37.186 38.3361 37.3524C37.987 37.5271 37.5792 37.3613 37.4398 36.915C37.3315 36.5683 37.268 36.1832 37.2597 35.8118C37.228 34.4452 37.2204 33.0772 37.2169 31.7093C37.2087 28.5951 37.2694 25.4768 37.0106 22.3756C36.9064 21.1294 36.7581 19.8907 36.3951 18.7133C36.2392 18.2085 36.0577 17.7023 35.8134 17.2538C35.5933 16.8494 35.307 16.4712 34.9889 16.172C34.3368 15.5592 33.5674 15.5523 32.8457 16.0785C32.4075 16.3976 32.0639 16.8364 31.761 17.3226C31.2821 18.0915 30.9267 18.9389 30.6135 19.8123C29.9869 21.5579 29.5315 23.3694 29.0575 25.1735C28.3536 27.8489 27.665 30.5311 26.67 33.0862C26.2718 34.1096 25.8068 35.1013 25.3272 36.0766C25.0823 36.5752 24.7552 37.0243 24.4316 37.4611C24.2204 37.7451 23.9658 37.9975 23.7001 38.2094C22.7762 38.9453 21.8143 38.8194 21.0567 37.8889C20.6385 37.3751 20.3598 36.7554 20.1265 36.1034C19.6711 34.829 19.4062 33.4872 19.2102 32.1247C18.8831 29.8516 18.7382 27.5559 18.7486 25.2429C18.7527 24.3199 18.7637 23.3963 18.77 22.7285L18.7672 22.7298Z" fill="#FD014F"/>
<path d="M32.97 6.66504C34.2521 6.73588 34.9711 7.25927 35.1505 8.12173C35.2153 8.43466 35.2133 8.78542 35.145 9.09766C34.8027 10.6486 32.9969 11.976 31.4085 11.8577C30.4956 11.7896 29.7945 11.3659 29.4419 10.5007C29.0852 9.62724 29.2094 8.76685 29.8774 8.11485C30.7985 7.21388 31.9515 6.74138 32.9707 6.66504H32.97ZM33.0397 8.28129C32.7685 8.27303 32.4228 8.42159 32.0896 8.60797C31.7169 8.81637 31.3402 9.01651 30.9786 9.24347C30.8896 9.29918 30.8027 9.44292 30.8047 9.54471C30.813 9.98557 31.2146 10.3088 31.7018 10.2428C32.5719 10.1245 33.1812 9.63412 33.5289 8.83769C33.6828 8.48555 33.5565 8.32186 33.0397 8.28197V8.28129Z" fill="#FDA201"/>
<path d="M25.7304 7.01767C26.0091 7.04725 26.2582 7.19993 26.4701 7.41933C26.8371 7.79966 27.1973 8.18687 27.5679 8.56308C27.8108 8.80999 28.0723 9.0397 28.3159 9.28524C28.5898 9.56172 28.6271 9.86433 28.4345 10.1305C28.2448 10.3918 27.926 10.4586 27.5941 10.2956C27.4761 10.2378 27.3595 10.1697 27.2594 10.0851C26.6288 9.55209 25.9981 9.01907 25.3778 8.47436C25.119 8.2474 24.9644 7.96129 25.0134 7.59815C25.0617 7.24257 25.3377 7.00667 25.7304 7.01699V7.01767Z" fill="#FDA201"/>
<path d="M27.8115 4.75226C27.9095 4.82242 28.1089 4.93315 28.2662 5.08721C28.3656 5.18487 28.4132 5.34237 28.4649 5.47992C28.6609 6.004 28.8541 6.53014 29.039 7.05834C29.1625 7.41048 29.057 7.7124 28.7734 7.86853C28.4877 8.02602 28.1337 7.97375 27.955 7.645C27.61 7.01088 27.2808 6.35957 27.0366 5.68212C26.8572 5.18556 27.2291 4.73163 27.8129 4.75226H27.8115Z" fill="#FDA201"/>
<path d="M30.0562 4.77484C30.0769 4.41101 30.0727 4.16135 30.112 3.91857C30.1396 3.74525 30.1976 3.56368 30.2915 3.41719C30.4322 3.19642 30.6537 3.08706 30.929 3.1242C31.205 3.16134 31.3796 3.32984 31.4672 3.57606C31.5149 3.71086 31.5328 3.86767 31.519 4.01073C31.4624 4.58364 31.3982 5.15586 31.3161 5.72601C31.2561 6.14349 31.0167 6.36289 30.6854 6.35394C30.3591 6.345 30.1245 6.11116 30.0817 5.69163C30.0465 5.34981 30.0617 5.00249 30.0568 4.77484H30.0562Z" fill="#FDA201"/>
<path d="M36.4484 9.44771C36.9577 9.50548 37.4683 9.55018 37.9741 9.62859C38.1631 9.65816 38.3543 9.74345 38.5199 9.84386C38.749 9.98348 38.8435 10.2118 38.8118 10.4814C38.7786 10.7579 38.6103 10.9374 38.357 11.0131C38.1887 11.0633 37.9941 11.0922 37.825 11.0598C37.2571 10.9512 36.6927 10.8232 36.1331 10.6788C35.6798 10.5619 35.4762 10.1953 35.6266 9.82667C35.7488 9.5268 36.0282 9.39338 36.4498 9.44771H36.4484Z" fill="#FDA201"/>
<path d="M35.6952 3.80678C35.631 3.93057 35.5675 4.12384 35.4481 4.27239C35.1169 4.68368 34.7671 5.08052 34.4152 5.47529C34.2151 5.70019 33.9708 5.81986 33.6624 5.69607C33.3319 5.56333 33.1476 5.20019 33.3394 4.88657C33.6907 4.31228 34.084 3.75932 34.5056 3.23387C34.6967 2.9959 35.0121 2.92713 35.3219 3.08531C35.5896 3.22149 35.6772 3.45808 35.6938 3.80678H35.6952Z" fill="#FDA201"/>
<path d="M36.5794 7.58666C36.1343 7.55159 35.8956 7.35832 35.8355 7.08322C35.7769 6.81499 35.9066 6.51031 36.2061 6.40508C36.7015 6.23039 37.2108 6.08114 37.7255 5.97454C38.0774 5.90164 38.4128 6.14579 38.5004 6.44979C38.5949 6.77716 38.4183 7.16712 38.0443 7.27442C37.524 7.42435 36.9837 7.50344 36.5794 7.58666Z" fill="#FDA201"/>
<path d="M33.0397 8.2811C33.5565 8.32031 33.6828 8.48468 33.5289 8.83682C33.1811 9.63325 32.5719 10.1236 31.7017 10.2419C31.2146 10.3079 30.813 9.9847 30.8047 9.54384C30.8027 9.44205 30.8896 9.299 30.9786 9.2426C31.3395 9.01633 31.7169 8.8155 32.0895 8.60711C32.4228 8.42072 32.7685 8.27217 33.0397 8.28042V8.2811Z" fill="#FDA201"/>
</svg>
