<svg width="62" height="56" viewBox="0 0 62 56" fill="none" xmlns="http://www.w3.org/2000/svg">
<path d="M31.0001 17.2356C34.9722 17.2356 38.1921 14.0041 38.1921 10.0178C38.1921 6.03156 34.9722 2.80005 31.0001 2.80005C27.0281 2.80005 23.8081 6.03156 23.8081 10.0178C23.8081 14.0041 27.0281 17.2356 31.0001 17.2356Z" fill="#FDA201"/>
<path d="M41.9741 30.1779L41.2301 23.9556C40.9201 21.4668 39.4321 19.3512 37.3861 18.2312C35.6501 19.6001 33.4181 20.4712 31.0621 20.4712C28.6441 20.4712 26.4741 19.6001 24.7381 18.2312C22.6921 19.3512 21.1421 21.4668 20.8941 23.9556L20.1501 30.1779C20.0261 30.9868 20.5841 31.7334 21.3901 31.9201C24.4901 32.6045 27.7141 32.9156 31.1241 32.9156C34.5341 32.9156 37.8201 32.5423 40.8581 31.9201C41.5401 31.7334 42.0361 30.9868 41.9741 30.1779Z" fill="#FDA201"/>
<path d="M27.5901 50.2134C26.9081 49.9645 26.5981 49.7779 25.9161 49.529C26.1641 48.7201 26.4121 47.4134 25.9781 45.9823C25.4821 44.3645 24.4281 43.0579 23.8081 42.3734C23.6221 42.1245 23.2501 42.1245 23.0641 42.3734C22.6301 43.0579 21.8241 44.4268 22.1341 46.1068C22.2581 46.7912 22.6301 47.4756 23.0021 48.0356C21.6381 47.2267 20.9561 46.729 19.7161 45.7956C20.1501 45.049 20.7081 43.8045 20.6461 42.3734C20.5841 40.6934 19.9021 39.2001 19.4681 38.3912C19.3441 38.0801 18.9721 38.0179 18.7241 38.2045C18.1041 38.7645 17.0501 39.8845 16.9261 41.5645C16.8641 42.249 17.0501 42.9956 17.2981 43.6179C16.1821 42.4979 15.6241 41.9379 14.6941 40.6934C15.3141 40.0712 16.1201 39.0134 16.3681 37.6445C16.6781 36.0268 16.3681 34.409 16.1821 33.5379C16.1201 33.2268 15.8101 33.0401 15.5001 33.1645C14.7561 33.5379 13.4541 34.409 12.9581 36.0268C12.7721 36.7112 12.7721 37.3956 12.8341 38.0801C12.0281 36.7734 11.6561 36.089 10.9741 34.6579C11.7181 34.2223 12.7101 33.3512 13.3301 32.0445C14.0121 30.5512 14.0741 28.8712 14.0741 28.0001C14.0741 27.689 13.8261 27.4401 13.5161 27.5023C12.7101 27.689 11.2221 28.249 10.4161 29.7423C10.1061 30.3645 9.92013 31.049 9.79613 31.7334C9.30013 30.2401 9.11413 29.4934 8.80413 27.9379C9.61013 27.689 10.7881 27.0668 11.7181 25.9468C12.7101 24.6401 13.1441 23.0223 13.3921 22.1512C13.4541 21.8401 13.2681 21.529 12.9581 21.529C12.1521 21.529 10.6021 21.7156 9.42413 22.9601C8.92813 23.4579 8.61813 24.1423 8.37013 24.7645C8.24613 23.209 8.18413 22.4001 8.24613 20.7823C9.11413 20.7201 10.4161 20.409 11.5321 19.5379C12.8341 18.4801 13.6401 16.9868 14.0741 16.1156C14.1981 15.8045 14.0741 15.4312 13.8261 15.369C13.0201 15.1823 11.4701 14.9956 10.0441 15.9912C9.48613 16.3645 8.99013 16.9868 8.61813 17.5468C8.86613 15.8045 9.05213 14.9334 9.61013 13.1912C9.79613 12.569 9.61013 12.009 9.17613 11.8223C8.74213 11.6979 8.24613 12.0712 8.06013 12.6934C7.50213 14.4979 7.31613 15.4312 7.06813 17.2979C6.88213 16.5512 6.63413 15.8045 6.26213 15.1823C5.39413 13.5023 4.03013 12.8179 3.22413 12.569C2.91413 12.5068 2.60413 12.8801 2.60413 13.3779C2.48013 14.7468 2.60413 17.2356 3.72013 18.8534C4.65013 20.2223 5.95213 20.6579 6.82013 20.7823C6.75813 22.4623 6.75813 23.3334 6.94413 24.9512C6.57213 24.329 6.20013 23.6445 5.64213 23.1468C4.40213 21.7779 2.85213 21.4045 2.04613 21.3423C1.73613 21.3423 1.55013 21.7779 1.61213 22.2134C1.86013 23.5201 2.54213 25.8223 3.96813 27.129C5.20813 28.249 6.51013 28.3112 7.37813 28.249C7.68813 29.8668 7.93613 30.6756 8.43213 32.2312C7.93613 31.6712 7.37813 31.1734 6.75813 30.8001C5.20813 29.8045 3.65813 29.8045 2.85213 29.929C2.60413 29.9912 2.48013 30.489 2.66613 30.9245C3.16213 32.1068 4.40213 34.1601 6.07613 35.0934C7.50213 35.8401 8.86613 35.6534 9.67213 35.3423C10.3541 36.8356 10.7261 37.5823 11.5941 38.9512C10.9741 38.5779 10.3541 38.1423 9.67213 37.8934C7.93613 37.2712 6.44813 37.6445 5.70413 37.9556C5.45613 38.0801 5.45613 38.5779 5.70413 38.9512C6.44813 39.9467 8.12213 41.689 9.98213 42.1868C11.5321 42.6223 12.7721 42.0623 13.5161 41.6268C14.5081 42.9334 15.0661 43.5556 16.2441 44.7379C15.5621 44.489 14.8181 44.2401 14.0741 44.1779C12.2761 43.9912 10.9121 44.6756 10.2301 45.1734C9.98213 45.3601 10.1061 45.8579 10.4781 46.1068C11.4701 46.9156 13.5161 48.2845 15.3761 48.3467C16.9881 48.409 18.1041 47.6001 18.7241 46.9779C20.0261 48.0356 20.7081 48.5334 22.1961 49.4045C21.4521 49.2801 20.7081 49.2801 19.9641 49.3423C18.1041 49.529 16.9261 50.5868 16.4301 51.1467C16.2441 51.3956 16.4921 51.8312 16.8641 52.0179C18.0421 52.5779 20.3981 53.449 22.2581 53.0756C23.9321 52.7645 24.8001 51.7068 25.2341 50.9601C25.9161 51.2712 26.2881 51.4579 27.0321 51.7068C27.6521 51.9556 28.2721 51.769 28.4581 51.3334C28.5821 50.8979 28.2101 50.4001 27.5901 50.2134Z" fill="#FDA201"/>
<path d="M58.0941 27.1912C59.5201 25.9468 60.2021 23.5823 60.4501 22.2757C60.5121 21.8401 60.3261 21.3423 60.0161 21.4045C59.2101 21.4668 57.7221 21.8401 56.4201 23.209C55.9241 23.769 55.4901 24.3912 55.1181 25.0134C55.3041 23.3334 55.3041 22.5245 55.2421 20.8445C56.1101 20.7201 57.4121 20.2845 58.3421 18.9157C59.3961 17.2979 59.5201 14.809 59.4581 13.4401C59.3961 12.9423 59.0861 12.569 58.8381 12.6312C58.0941 12.8801 56.6681 13.6268 55.8001 15.2445C55.4281 15.929 55.1801 16.6757 54.9941 17.3601C54.7461 15.4934 54.4981 14.6223 54.0021 12.7557C53.8161 12.1334 53.2581 11.6979 52.8861 11.8845C52.4521 12.009 52.2661 12.6312 52.4521 13.2534C52.9481 14.9957 53.1341 15.8668 53.4441 17.609C53.0721 16.9868 52.5761 16.4268 52.0181 16.0534C50.5921 15.0579 49.0421 15.2445 48.2361 15.4312C47.9261 15.4934 47.8021 15.8668 47.9881 16.1779C48.4221 16.9868 49.2281 18.5423 50.5301 19.6001C51.6461 20.4712 52.9481 20.7823 53.8161 20.8445C53.8781 22.4623 53.8781 23.2712 53.6921 24.8268C53.4441 24.1423 53.1341 23.5201 52.6381 23.0223C51.4601 21.7779 49.9101 21.5912 49.1041 21.5912C48.7941 21.5912 48.6081 21.9023 48.6701 22.2134C48.8561 23.0845 49.2901 24.7023 50.3441 26.009C51.2121 27.129 52.3901 27.689 53.2581 28.0001C52.9481 29.5557 52.7621 30.3023 52.2661 31.7957C52.2041 31.1112 52.0181 30.4268 51.6461 29.8045C50.8401 28.3112 49.2901 27.8134 48.5461 27.5645C48.2361 27.5023 47.9881 27.7512 47.9881 28.0623C47.9881 28.9334 48.0501 30.6134 48.7321 32.1068C49.3521 33.4134 50.3441 34.2223 51.0881 34.7201C50.4061 36.1512 50.0961 36.8357 49.2281 38.1423C49.2901 37.4579 49.2901 36.7112 49.1041 36.089C48.6081 34.4712 47.3061 33.6001 46.5621 33.2268C46.3141 33.1023 46.0041 33.289 45.8801 33.6001C45.6941 34.4712 45.3221 36.089 45.6941 37.7068C46.0041 39.0757 46.8101 40.1334 47.3681 40.7557C46.3761 42.0001 45.8801 42.5601 44.7641 43.6801C45.0121 43.0579 45.1361 42.3112 45.1361 41.6268C45.0741 39.9468 43.9581 38.7645 43.3381 38.2668C43.0901 38.0801 42.7801 38.1423 42.5941 38.4534C42.2221 39.2623 41.4781 40.7557 41.4161 42.4357C41.3541 43.8668 41.9121 45.1112 42.3461 45.8579C41.1061 46.8534 40.4241 47.289 39.0601 48.0979C39.4941 47.5379 39.8041 46.8534 39.9281 46.169C40.3001 44.489 39.4941 43.1201 38.9981 42.4357C38.8121 42.1868 38.4401 42.1868 38.2541 42.4357C37.6961 43.1201 36.5801 44.4268 36.0841 46.0445C35.6501 47.4134 35.8981 48.7823 36.1461 49.5912C35.4641 49.9023 35.1541 50.0268 34.4721 50.2757C33.9141 50.5245 33.5421 51.0223 33.6661 51.4579C33.7901 51.8934 34.4721 52.0801 35.0921 51.8312C35.8361 51.5823 36.1461 51.3957 36.8901 51.0845C37.3241 51.8312 38.2541 52.889 39.8661 53.2001C41.7881 53.5734 44.0821 52.7023 45.2601 52.1423C45.6941 51.9557 45.9421 51.4579 45.6941 51.2712C45.1361 50.649 43.9581 49.6534 42.1601 49.4668C41.4161 49.4045 40.6101 49.4045 39.9281 49.529C41.4161 48.6579 42.0981 48.1601 43.4001 47.1023C44.0201 47.7245 45.1361 48.5334 46.7481 48.4712C48.6701 48.409 50.7161 47.1023 51.6461 46.2312C52.0181 45.9201 52.1421 45.4223 51.8941 45.2979C51.2121 44.8001 49.8481 44.1157 48.0501 44.3023C47.3061 44.3645 46.5621 44.6134 45.8801 44.8623C47.0581 43.6801 47.6161 43.0579 48.6081 41.7512C49.3521 42.1868 50.5921 42.7468 52.1421 42.3112C53.9401 41.8134 55.6141 40.0712 56.4201 39.0757C56.6681 38.7023 56.6681 38.2045 56.4201 38.0801C55.6761 37.769 54.1881 37.3957 52.4521 38.0179C51.7701 38.2668 51.0881 38.6401 50.5301 39.0757C51.3981 37.7068 51.7701 36.9601 52.4521 35.4668C53.2581 35.7157 54.6221 35.9645 56.0481 35.2179C57.7221 34.3468 58.9001 32.2312 59.4581 31.049C59.6441 30.6134 59.5201 30.1157 59.2101 30.1157C58.4041 29.9912 56.8541 29.9912 55.3041 30.9868C54.6841 31.3601 54.1261 31.9201 53.6301 32.4179C54.1881 30.8623 54.3741 30.0534 54.6841 28.4357C55.4901 28.3734 56.8541 28.3112 58.0941 27.1912Z" fill="#FDA201"/>
</svg>
